<?xml version="1.0" standalone="no"?>
<!DOCTYPE svg PUBLIC "-//W3C//DTD SVG 20010904//EN"
 "http://www.w3.org/TR/2001/REC-SVG-20010904/DTD/svg10.dtd">
<svg version="1.0" xmlns="http://www.w3.org/2000/svg"
 width="9229.000000pt" height="3042.000000pt" viewBox="0 0 9229.000000 3042.000000"
 preserveAspectRatio="xMidYMid meet">

<g transform="translate(0.000000,3042.000000) scale(0.100000,-0.100000)"
fill="#000000" stroke="none">
<path d="M17342 28339 c3 -8 49 -121 103 -252 53 -132 94 -241 92 -243 -2 -3
-17 0 -33 7 -178 68 -684 106 -1284 96 -377 -7 -814 -24 -871 -35 l-36 -7 194
-174 c106 -96 192 -175 191 -176 -2 -1 -46 2 -98 7 -259 26 -783 -16 -1305
-103 -309 -51 -1005 -196 -1084 -224 -8 -3 73 -72 198 -167 l212 -162 -108
-24 c-266 -59 -951 -311 -1875 -690 -21 -8 -38 -19 -38 -23 0 -4 62 -45 138
-90 75 -45 145 -88 155 -95 16 -10 9 -15 -55 -34 -99 -30 -583 -210 -973 -363
-359 -140 -726 -286 -738 -294 -4 -2 68 -57 161 -121 92 -65 169 -121 170
-126 2 -4 -30 -23 -70 -40 -102 -44 -399 -199 -673 -351 -385 -212 -795 -447
-795 -454 0 -3 104 -58 230 -121 208 -104 252 -130 219 -130 -6 0 -104 -46
-218 -103 -313 -157 -614 -333 -896 -525 -184 -126 -348 -249 -338 -255 4 -3
76 -33 158 -67 83 -34 153 -65 157 -68 4 -4 -287 -200 -646 -435 l-654 -428
-179 -3 c-205 -5 -333 -24 -607 -93 -406 -101 -938 -302 -1528 -577 -236 -109
-495 -237 -535 -263 l-22 -15 57 -51 c31 -29 77 -70 101 -93 l44 -40 -89 -32
c-207 -74 -553 -306 -932 -626 -79 -67 -155 -131 -169 -143 l-26 -21 134 -67
c74 -37 136 -69 137 -70 2 -2 -117 -124 -265 -272 -351 -350 -588 -628 -763
-893 -63 -97 -165 -288 -157 -297 4 -4 361 31 421 42 35 6 39 11 -101 -151
-426 -494 -729 -1015 -834 -1433 -32 -126 -35 -151 -16 -151 6 1 116 16 242
34 127 18 231 32 233 30 2 -1 -30 -62 -71 -136 -323 -578 -578 -1265 -742
-2002 -65 -295 -138 -736 -120 -736 10 0 417 80 437 86 13 4 9 -14 -22 -91
-100 -243 -190 -566 -231 -822 -44 -278 -36 -686 17 -863 37 -126 234 -251
589 -376 66 -23 113 -45 105 -47 -8 -3 -51 -17 -95 -31 -193 -63 -264 -146
-202 -237 22 -33 24 -34 102 -36 297 -9 700 -72 1243 -193 147 -33 284 -64
304 -70 l37 -11 -29 -46 c-17 -26 -30 -59 -30 -73 0 -49 69 -93 183 -116 225
-44 894 -16 1152 50 296 75 730 107 1180 87 132 -6 268 -14 303 -18 62 -6 64
-7 84 -47 111 -219 428 -544 730 -750 56 -38 58 -40 52 -76 -3 -20 -1 -86 6
-145 54 -508 346 -1302 747 -2033 861 -1571 2126 -2759 3587 -3366 670 -279
1536 -494 2296 -570 326 -33 457 -39 830 -39 402 -1 619 12 960 54 883 109
1718 361 2410 728 192 102 443 130 520 59 20 -18 24 -19 93 -4 140 29 279 38
377 27 102 -13 156 -31 215 -73 77 -54 72 -7 84 -758 6 -371 14 -757 17 -858
l6 -182 151 195 c83 107 152 193 154 191 2 -2 24 -85 48 -184 200 -819 482
-1424 825 -1773 85 -86 197 -175 208 -164 4 4 -24 524 -34 632 l-5 61 63 -26
c57 -24 75 -27 188 -26 116 0 131 2 211 32 307 116 665 477 970 977 40 66 74
122 76 124 2 3 51 -42 108 -99 l104 -104 48 40 c338 285 818 1227 1239 2434
30 85 57 161 60 169 2 8 52 -82 110 -200 l105 -214 45 70 c208 324 484 1144
769 2289 47 186 86 340 87 342 2 1 41 -59 88 -134 46 -75 104 -168 128 -206
l44 -69 45 69 c245 375 371 1019 361 1842 -1 155 -2 282 0 282 2 0 102 -73
223 -163 121 -89 223 -162 227 -162 14 0 42 155 52 285 19 241 -11 568 -90
976 -63 321 -207 867 -314 1182 -29 87 -32 102 -18 98 42 -14 316 -66 320 -61
3 3 -3 60 -12 127 -51 365 -189 853 -401 1413 -74 197 -222 562 -245 605 -8
15 3 18 112 23 66 3 122 8 124 10 8 8 -39 143 -83 241 -132 295 -448 770 -777
1169 -54 66 -96 120 -94 122 2 2 72 8 156 13 85 6 156 13 159 16 9 9 -102 230
-162 320 -333 506 -1030 1043 -1917 1479 -103 51 -188 95 -188 98 0 3 12 11
27 18 106 48 288 277 460 578 l70 121 21 -72 c25 -84 68 -154 113 -180 39 -23
119 -24 173 -1 103 44 244 165 377 324 l79 94 0 364 0 363 58 -45 c139 -108
306 -114 502 -17 41 20 78 39 83 40 4 2 7 -37 7 -87 0 -112 23 -292 50 -391
27 -98 98 -242 149 -303 86 -104 196 -172 322 -202 67 -15 215 -20 236 -7 6 4
16 45 23 92 23 180 71 264 145 258 36 -3 40 -7 79 -81 84 -158 179 -252 293
-287 77 -24 117 -25 201 -5 105 25 216 88 339 192 l63 53 16 -37 c8 -21 40
-110 69 -198 163 -487 259 -986 296 -1540 15 -222 6 -854 -15 -1070 -65 -653
-218 -1355 -404 -1842 -22 -57 -37 -103 -33 -103 3 0 38 36 76 81 392 452 610
1073 687 1959 16 188 16 843 0 1065 -50 673 -157 1342 -318 1993 -31 123 -54
226 -52 228 2 2 31 -4 63 -12 40 -11 87 -15 142 -12 110 6 192 46 287 140 38
38 70 67 72 65 17 -17 198 -412 257 -562 248 -627 391 -1256 463 -2035 22
-237 30 -926 15 -1198 -18 -307 -72 -800 -97 -887 -4 -13 -3 -17 4 -10 21 22
132 359 187 568 246 935 230 2029 -46 3132 -146 584 -382 1230 -618 1691 l-57
113 40 15 c112 39 386 136 424 150 l42 15 94 -117 c568 -712 962 -1661 1146
-2759 90 -540 134 -1187 112 -1673 -6 -134 -9 -246 -7 -248 6 -7 87 215 121
333 45 153 78 323 100 505 24 195 24 620 0 845 -87 829 -368 1721 -855 2720
-189 388 -455 866 -637 1147 -94 145 -91 128 -37 189 59 65 109 88 189 89 119
0 211 55 255 152 21 47 24 67 24 173 -1 98 -5 137 -27 216 -44 160 -138 379
-243 567 l-46 84 43 -9 c24 -4 78 -8 120 -8 90 0 124 19 147 80 41 107 -68
368 -289 694 l-86 126 -229 7 c-325 9 -716 28 -877 42 -76 6 -138 9 -137 6 0
-3 115 -110 255 -239 140 -129 251 -238 247 -242 -4 -4 -71 -30 -148 -57 -77
-28 -153 -55 -168 -61 l-28 -11 106 -91 c183 -158 342 -348 415 -494 89 -181
88 -318 -6 -440 -56 -74 -249 -176 -378 -200 -20 -4 -38 -11 -41 -15 -3 -4 7
-36 21 -71 71 -174 110 -431 85 -564 -16 -84 -62 -176 -113 -226 -81 -79 -229
-128 -391 -129 l-67 0 16 -37 c40 -90 113 -326 128 -412 29 -174 15 -319 -40
-422 -32 -58 -90 -117 -103 -103 -6 5 -89 196 -186 424 -97 228 -183 422 -191
430 -11 11 -40 15 -117 15 -92 0 -108 -3 -159 -28 -69 -34 -113 -84 -135 -153
l-16 -52 161 -386 160 -386 -56 -200 c-32 -110 -60 -200 -63 -200 -3 0 -87
190 -186 423 -205 482 -175 444 -299 382 -164 -83 -272 -231 -314 -430 l-13
-60 -54 345 c-38 247 -60 358 -75 390 -30 62 -131 160 -200 193 -93 44 -177
59 -315 55 l-122 -3 -6 40 c-31 192 -102 448 -156 563 -33 69 -89 132 -118
132 -21 0 -54 -46 -104 -146 -42 -85 -79 -197 -108 -336 l-22 -105 -41 9 c-98
22 -217 -20 -301 -107 -97 -99 -164 -278 -196 -520 -14 -104 -14 -518 -1 -650
5 -49 8 -91 7 -92 0 -1 -103 140 -228 314 l-227 316 -46 -99 c-127 -271 -304
-634 -375 -766 -76 -143 -145 -258 -136 -228 2 8 93 282 202 608 194 585 197
594 186 639 -17 66 -45 116 -86 151 -80 71 -202 32 -352 -113 l-83 -80 -411
-935 c-225 -514 -421 -959 -435 -989 l-24 -53 -71 67 c-91 86 -176 140 -257
165 -97 30 -155 23 -227 -26 -21 -14 -39 -24 -40 -22 -2 2 148 278 333 613
l337 610 3 82 c3 68 0 90 -17 126 -40 82 -120 97 -253 48 -114 -44 -89 -6
-520 -786 l-397 -720 -113 -68 c-233 -141 -447 -308 -518 -402 l-35 -47 -5 54
c-7 63 -29 109 -67 136 -35 24 -88 42 -124 42 -16 0 -29 3 -29 6 0 3 156 236
347 517 l347 511 14 76 c22 125 3 227 -50 264 -29 20 -97 20 -145 0 -34 -14
-91 -91 -513 -690 -261 -372 -479 -678 -484 -681 -5 -4 -130 -45 -278 -93
l-269 -88 -112 144 -112 143 -106 1 -106 0 -161 94 c-562 331 -1077 589 -1220
612 -39 6 -45 11 -73 64 -17 32 -60 94 -95 139 -191 238 -506 430 -854 521
l-85 22 -2 72 c-5 254 -165 470 -445 600 -90 42 -95 47 -150 122 -123 172
-233 359 -267 454 l-13 35 -23 -50 c-32 -71 -45 -142 -45 -243 0 -216 116
-473 321 -712 40 -47 78 -92 86 -101 12 -14 8 -15 -44 -8 -213 29 -646 37
-943 19 -1247 -78 -2412 -479 -3463 -1193 l-139 -94 -76 19 c-264 63 -641 43
-977 -53 -380 -108 -765 -320 -1132 -624 -146 -120 -444 -420 -581 -583 -362
-430 -681 -926 -987 -1533 -126 -250 -289 -599 -282 -605 2 -2 53 58 113 134
408 513 863 1022 1275 1427 695 681 1261 1056 1670 1106 53 7 121 9 152 5 56
-7 57 -8 69 -49 16 -59 14 -209 -5 -289 -52 -214 -194 -450 -405 -669 l-93
-97 25 -144 c84 -470 98 -865 39 -1048 -15 -46 -27 -59 -157 -164 -255 -206
-454 -403 -552 -547 l-46 -66 13 -159 c17 -214 18 -641 1 -716 -13 -55 -15
-58 -90 -109 -161 -112 -347 -284 -419 -390 -17 -24 -43 -69 -59 -99 -28 -55
-28 -56 -35 -310 -11 -393 -33 -614 -86 -850 -134 -604 -408 -649 -817 -135
-44 57 -110 148 -146 203 -73 114 -65 109 -235 139 -144 25 -545 25 -705 0
-216 -34 -490 -112 -654 -186 l-61 -27 -1 100 c-2 186 -51 303 -147 350 -72
37 -117 33 -271 -18 -229 -78 -422 -106 -715 -106 -151 0 -332 11 -436 26
l-40 6 44 89 c40 79 45 99 49 172 4 70 1 90 -17 125 -27 53 -75 89 -150 112
-109 34 -199 34 -571 -1 -426 -40 -762 -46 -869 -16 -80 23 -150 58 -195 97
l-34 31 44 172 c283 1086 632 1980 903 2315 33 40 47 64 39 67 -7 2 -119 29
-249 60 l-235 56 113 217 c63 119 182 354 265 522 496 1004 748 1660 749 1956
0 130 -38 182 -129 171 -26 -3 -56 -9 -66 -13 -12 -4 17 40 68 107 632 820
931 1211 928 1217 -1 4 -68 25 -147 47 -79 23 -147 43 -150 46 -4 4 1227 968
1278 1001 6 4 -37 56 -102 124 -62 64 -109 120 -104 125 4 4 100 44 213 88
440 170 815 294 968 321 39 7 72 14 72 15 0 0 -27 68 -60 149 l-59 148 142 68
c348 166 644 260 818 260 71 0 73 0 248 94 542 288 1256 649 1536 775 197 89
370 157 448 177 l67 16 -52 62 c-29 33 -93 107 -142 164 -49 57 -85 107 -80
111 5 5 97 43 204 86 769 305 1300 602 1422 794 37 58 38 121 4 165 -27 36
-103 76 -190 101 l-59 17 39 25 c21 13 55 33 75 44 32 18 37 27 42 68 11 85
37 152 75 192 102 106 630 327 1072 448 123 34 181 58 380 155 485 237 904
395 1162 440 44 8 81 16 83 18 2 2 -24 92 -59 200 l-63 197 171 41 c471 112
1078 280 1326 365 144 50 290 120 290 139 0 6 -9 65 -19 131 -10 66 -18 121
-17 122 3 4 309 34 496 48 286 22 747 30 910 16 140 -12 248 -33 308 -58 l35
-15 151 149 c83 82 171 167 196 190 l45 42 210 -39 c615 -114 1050 -222 1199
-297 l49 -25 176 175 176 176 150 -48 c524 -168 955 -372 1224 -582 46 -35 92
-71 104 -81 17 -13 35 -15 80 -11 l59 6 125 148 c118 140 126 148 146 135 12
-7 81 -46 152 -87 72 -40 171 -99 221 -130 l92 -57 313 -11 c173 -7 370 -16
439 -22 337 -26 481 -30 750 -24 157 3 292 8 302 11 36 11 -269 276 -577 501
-379 277 -1058 731 -1062 711 -2 -7 8 -121 21 -253 13 -132 22 -241 21 -243
-2 -2 -90 44 -196 101 -419 225 -1452 758 -1458 752 -3 -4 -50 -418 -51 -451
0 -7 -25 -2 -67 13 -190 69 -1164 349 -2028 583 -104 28 -199 54 -209 57 -13
4 -17 1 -14 -8z m-2587 -9959 c265 -12 585 -41 735 -66 31 -5 32 -7 15 -16
-95 -51 -87 -117 24 -221 113 -104 377 -248 736 -402 172 -74 214 -95 187 -95
-7 0 -30 -16 -52 -36 -155 -141 78 -301 655 -449 94 -24 223 -55 288 -68 65
-14 121 -28 124 -30 3 -3 -4 -18 -15 -34 -53 -77 -50 -162 9 -204 81 -58 262
-79 494 -60 129 11 388 46 426 57 14 4 11 -14 -18 -103 -63 -199 -163 -556
-218 -778 -194 -785 -250 -1384 -159 -1694 6 -21 -2 -17 -56 27 -133 107 -343
151 -721 152 -159 0 -228 -20 -287 -84 -36 -39 -41 -51 -47 -111 -4 -37 -5
-109 -3 -159 8 -145 53 -225 153 -272 43 -20 65 -24 155 -24 178 0 294 -42
396 -144 39 -39 72 -85 92 -127 59 -123 61 -147 68 -699 6 -483 8 -509 30
-598 43 -173 147 -359 299 -535 l76 -88 -71 -76 c-140 -150 -261 -363 -304
-536 -23 -88 -24 -112 -29 -597 -5 -468 -7 -511 -26 -583 -28 -106 -72 -186
-140 -250 -103 -99 -211 -137 -402 -141 -106 -3 -122 -6 -163 -30 -53 -31 -89
-74 -113 -137 -13 -35 -17 -75 -17 -190 l1 -147 37 -45 c50 -61 120 -89 238
-95 119 -5 442 15 503 32 120 33 217 75 271 117 156 119 328 307 385 422 62
122 78 310 86 1012 5 467 7 515 25 568 48 148 150 240 313 282 32 8 84 15 115
15 135 1 261 50 331 128 58 66 74 125 74 267 0 104 -3 127 -23 170 -48 105
-158 179 -291 196 -36 4 -104 13 -150 18 -194 24 -342 151 -379 326 -7 30 -13
254 -16 560 -7 787 -22 905 -137 1071 -29 43 -32 55 -41 168 -10 129 -4 413
13 580 57 573 221 1203 490 1882 l60 153 98 -64 c314 -203 599 -447 677 -581
53 -91 55 -106 34 -275 -43 -349 -92 -894 -122 -1364 -20 -314 -17 -1237 5
-1437 17 -157 50 -367 66 -423 l8 -30 6 25 c3 14 13 99 22 190 47 472 164
1482 226 1935 52 386 137 888 156 918 16 27 319 -584 503 -1013 397 -930 610
-1794 610 -2479 l0 -167 -50 -18 c-123 -44 -253 -161 -337 -301 -57 -96 -113
-254 -140 -395 -25 -135 -25 -523 0 -705 19 -129 75 -425 100 -520 l13 -50
-88 -42 c-125 -59 -220 -125 -313 -218 -223 -220 -329 -512 -311 -857 3 -69 8
-133 11 -141 4 -9 -16 -28 -62 -58 -162 -105 -359 -281 -475 -424 -187 -232
-274 -458 -266 -694 l3 -110 -60 -22 c-260 -94 -519 -260 -700 -450 -179 -188
-288 -401 -325 -632 l-13 -78 -71 -40 c-103 -58 -432 -219 -571 -279 -813
-354 -1616 -566 -2480 -657 -214 -22 -934 -26 -1140 -5 -462 46 -858 129
-1270 267 -342 114 -658 256 -1077 483 -1226 665 -2060 1429 -2603 2387 -285
501 -493 1034 -768 1965 l-94 315 77 72 c187 176 321 439 385 757 30 150 49
392 41 509 l-7 87 117 223 c205 391 366 662 442 743 l29 32 6 283 c7 301 18
452 43 587 13 75 22 95 96 210 142 223 296 438 423 592 68 81 229 240 244 240
5 0 11 10 14 23 11 43 57 435 72 610 15 175 21 584 10 630 -5 18 20 59 126
202 72 99 196 271 275 381 184 256 293 363 596 577 1006 714 2354 1072 3783
1007z m5840 -630 c-9 -16 -18 -30 -21 -30 -2 0 2 14 11 30 9 17 18 30 21 30 2
0 -2 -13 -11 -30z m1319 -478 c18 -52 64 -104 106 -117 37 -12 108 5 175 40
l64 33 103 -34 c225 -75 517 -243 763 -440 122 -97 509 -478 503 -495 -2 -6
-34 -24 -71 -40 -167 -71 -249 -169 -220 -263 5 -18 213 -287 462 -600 249
-312 451 -569 449 -571 -2 -2 -74 -10 -161 -18 -88 -9 -160 -17 -162 -19 -2
-2 193 -393 434 -868 241 -476 437 -866 437 -867 -1 -1 -94 -18 -206 -37 -113
-20 -215 -38 -227 -41 -21 -5 -20 -9 37 -128 135 -284 437 -1082 795 -2100 48
-136 85 -250 83 -253 -3 -2 -29 7 -59 21 -30 13 -87 32 -128 41 -86 19 -137
10 -169 -31 -23 -29 -22 -9 -48 -1155 -16 -678 -16 -685 -37 -709 -46 -50
-120 -64 -173 -32 -42 25 -71 75 -108 184 -17 50 -36 92 -43 94 -17 6 -51 -35
-83 -102 -102 -214 -321 -1004 -525 -1890 -36 -159 -68 -297 -71 -305 -3 -9
-18 9 -40 50 -103 194 -233 213 -373 54 -201 -229 -453 -843 -681 -1662 -26
-95 -50 -175 -53 -178 -3 -3 -81 55 -174 129 -92 75 -171 133 -175 129 -3 -4
-47 -99 -96 -212 -352 -807 -679 -1410 -940 -1737 -245 -307 -455 -412 -592
-296 -49 41 -79 104 -116 245 -76 289 -155 478 -234 560 -40 41 -52 48 -86 48
-45 0 -84 -23 -120 -71 -34 -45 -79 -133 -94 -187 -7 -23 -16 -42 -20 -42 -10
0 -86 254 -115 385 -56 256 -74 538 -46 720 18 111 63 249 106 320 l36 59 -27
65 c-31 73 -95 146 -137 156 -54 14 -111 -19 -168 -98 l-28 -39 -6 29 c-25
112 -64 224 -110 318 -110 228 -260 335 -468 335 -104 0 -189 -21 -306 -76
-51 -24 -97 -41 -102 -38 -21 12 -43 122 -42 209 3 304 272 643 778 982 79 53
164 103 327 196 l47 27 -29 63 c-42 90 -60 170 -60 267 0 138 45 261 140 390
147 198 457 416 790 555 36 15 68 30 72 33 4 4 -5 45 -19 92 -35 117 -44 331
-18 446 71 320 309 609 683 827 l104 60 -8 126 c-13 209 -7 670 10 827 40 367
124 591 250 669 43 26 59 30 119 30 l69 0 77 -81 c110 -116 201 -249 280 -409
132 -268 194 -516 210 -845 22 -466 -57 -951 -248 -1530 -172 -520 -449 -1116
-739 -1595 l-61 -100 62 -6 c34 -4 116 -7 182 -8 l120 -1 112 168 c629 943
985 1779 1102 2587 71 488 47 929 -74 1370 -134 489 -440 984 -797 1291 l-57
49 10 305 11 305 -61 137 c-221 498 -347 1008 -408 1658 -24 261 -24 932 0
1220 45 520 141 1100 250 1505 l32 120 6 -76 c4 -42 14 -99 23 -127z m-1129
-377 c-30 -134 -10 -239 54 -284 79 -57 254 -43 428 34 l53 24 -5 -62 c-5 -55
-85 -1350 -85 -1376 0 -6 -28 45 -63 112 -163 315 -496 805 -772 1136 -42 51
-75 97 -73 102 4 12 471 397 476 393 2 -1 -4 -37 -13 -79z"/>
<path d="M11850 14364 c-288 -16 -341 -23 -448 -60 -125 -42 -199 -93 -346
-238 -143 -142 -231 -279 -255 -396 -24 -122 -33 -311 -40 -850 -7 -551 -7
-566 -29 -620 -63 -158 -160 -239 -330 -275 -37 -8 -92 -15 -123 -15 -118 0
-253 -64 -308 -144 -48 -69 -64 -143 -59 -265 6 -131 29 -190 99 -256 78 -73
116 -85 358 -114 198 -25 345 -154 380 -334 5 -29 12 -286 15 -572 7 -812 20
-900 158 -1087 58 -80 252 -268 329 -320 29 -20 102 -53 160 -72 90 -31 127
-37 250 -46 359 -24 470 -9 547 74 36 39 41 51 47 111 12 110 1 242 -25 303
-27 62 -91 123 -148 140 -22 7 -82 12 -134 12 -165 0 -285 45 -383 144 -68 68
-107 141 -134 249 -16 63 -20 136 -26 582 -7 488 -8 514 -31 603 -43 171 -149
363 -292 528 l-71 82 26 23 c46 44 154 183 204 265 60 100 101 194 134 311 25
87 25 96 34 618 10 581 11 589 74 710 88 168 253 254 487 255 113 1 157 17
212 78 59 65 70 101 76 239 6 166 0 201 -46 250 -68 73 -169 97 -362 87z"/>
<path d="M14490 13080 c-215 -27 -397 -179 -471 -390 -33 -95 -33 -247 0 -348
58 -178 186 -306 368 -368 102 -35 243 -37 343 -5 186 59 338 215 385 396 19
74 19 223 0 295 -41 154 -157 297 -296 363 -106 51 -221 71 -329 57z"/>
<path d="M14375 10902 c-189 -64 -331 -220 -375 -411 -17 -74 -15 -210 5 -279
41 -139 136 -267 247 -329 92 -53 112 -107 84 -233 -11 -49 -29 -90 -55 -129
-123 -179 -226 -244 -457 -286 -148 -28 -164 -35 -228 -99 -86 -86 -91 -240
-10 -357 59 -86 120 -102 329 -88 552 36 947 344 1125 876 52 158 79 311 91
529 20 357 -32 543 -195 691 -105 96 -231 143 -386 143 -77 0 -110 -6 -175
-28z"/>
<path d="M26570 26950 c-726 -26 -1433 -138 -2059 -325 -166 -50 -372 -80
-831 -125 -597 -57 -1284 -76 -1655 -46 -457 37 -1178 48 -1672 26 -1681 -76
-3123 -409 -4269 -983 -93 -47 -197 -101 -232 -121 l-63 -35 -137 9 c-869 60
-2000 26 -2862 -85 -847 -110 -1571 -310 -2052 -568 -113 -61 -129 -75 -147
-126 -43 -130 25 -209 188 -219 74 -4 82 -2 216 51 354 139 842 275 1285 356
1168 215 2343 179 3465 -106 121 -30 228 -59 237 -64 58 -30 194 -364 313
-765 90 -303 150 -440 280 -634 217 -323 499 -521 855 -597 76 -16 138 -18
595 -18 512 1 699 8 1155 46 1255 103 2264 335 2985 685 99 48 120 63 147 101
121 177 278 735 428 1528 72 376 127 512 272 669 191 208 443 264 758 170 172
-52 430 -194 642 -355 59 -45 79 -67 88 -96 7 -21 28 -67 47 -103 118 -220
353 -431 653 -585 185 -96 307 -290 351 -560 16 -99 16 -380 0 -494 -10 -65
-10 -86 0 -91 25 -16 552 -93 884 -129 431 -47 776 -70 1200 -77 827 -16 1521
65 2050 237 101 32 127 45 157 76 180 188 363 703 472 1332 27 158 57 233 108
276 l31 26 -6 148 c-22 500 -136 900 -306 1071 l-56 57 -190 51 c-831 226
-1724 359 -2635 392 -290 10 -383 10 -690 0z m1422 -310 c808 -85 1339 -213
1598 -385 l68 -45 -212 -438 c-116 -240 -401 -827 -631 -1304 l-420 -867 -35
-5 c-208 -31 -1341 -42 -1760 -17 -129 8 -245 17 -257 20 -21 6 18 92 663
1471 377 806 698 1493 714 1528 34 73 9 69 272 42z m-6357 -329 c130 -14 337
-47 395 -64 l41 -12 -1098 -1651 -1098 -1652 -85 -11 c-706 -90 -1740 -119
-2222 -63 l-58 7 1132 1701 1132 1702 46 6 c60 7 464 35 670 46 219 11 1006 5
1145 -9z"/>
<path d="M23345 25677 c-169 -57 -311 -201 -394 -402 -35 -83 -39 -100 -111
-475 -104 -537 -220 -995 -315 -1236 -34 -88 -35 -90 -20 -139 8 -27 21 -60
30 -72 8 -12 75 -51 148 -86 220 -106 394 -232 564 -410 201 -210 375 -499
488 -810 24 -67 40 -91 103 -158 82 -88 191 -165 279 -200 45 -18 79 -23 153
-23 86 -1 101 2 161 30 99 47 218 165 297 295 12 20 29 74 38 120 59 316 229
686 437 948 50 62 77 109 160 276 47 95 64 196 73 430 10 233 -16 395 -83 534
-53 107 -115 170 -231 232 -333 179 -575 406 -703 662 -48 98 -53 103 -136
164 -180 133 -382 243 -548 299 -67 22 -102 27 -215 30 -95 3 -147 0 -175 -9z"/>
<path d="M34154 18805 c-109 -16 -212 -49 -304 -95 -358 -180 -600 -612 -687
-1230 -26 -182 -26 -780 0 -960 50 -354 151 -652 296 -873 66 -101 203 -242
292 -302 88 -59 201 -108 315 -137 77 -19 114 -22 279 -22 172 1 199 3 287 27
370 99 629 377 781 837 137 412 171 1041 86 1548 -78 466 -278 847 -544 1037
-212 152 -511 215 -801 170z m272 -344 c215 -41 398 -220 514 -502 108 -261
162 -707 140 -1152 -28 -556 -136 -886 -364 -1112 -144 -142 -321 -195 -499
-149 -244 63 -442 315 -537 681 -55 210 -71 358 -77 684 -11 590 57 949 229
1227 152 243 375 364 594 323z"/>
<path d="M30560 17000 l0 -1720 186 0 185 0 -3 1235 c-2 679 -2 1231 0 1227 1
-5 19 -67 40 -139 20 -71 159 -468 307 -881 l270 -752 230 2 229 3 213 605
c117 333 257 736 311 895 l97 290 -3 -1242 -3 -1243 211 0 210 0 0 1720 0
1720 -227 0 -228 0 -384 -1108 c-211 -609 -387 -1110 -390 -1115 -4 -4 -183
494 -397 1108 l-389 1115 -232 0 -233 0 0 -1720z"/>
<path d="M35790 17000 l0 -1720 210 0 210 0 0 1298 0 1297 67 -145 c37 -80
337 -664 666 -1297 l600 -1153 209 0 208 0 0 1720 0 1720 -211 0 -211 0 4
-1299 3 -1300 -65 165 c-54 136 -170 361 -670 1299 l-605 1134 -207 1 -208 0
0 -1720z"/>
<path d="M38160 18525 l0 -195 515 0 515 0 0 -1525 0 -1525 230 0 230 0 0
1525 0 1525 515 0 515 0 0 195 0 195 -1260 0 -1260 0 0 -195z"/>
<path d="M41040 17000 l0 -1720 930 0 930 0 0 195 0 195 -700 0 -700 0 0 595
0 595 615 0 615 0 0 175 0 175 -615 0 -615 0 0 575 0 575 685 0 685 0 0 180 0
180 -915 0 -915 0 0 -1720z"/>
<path d="M43460 17000 l0 -1720 230 0 230 0 0 730 0 730 223 0 222 0 450 -730
450 -730 269 0 c228 0 267 2 263 14 -3 8 -225 369 -492 802 -267 432 -484 788
-483 789 2 2 35 22 73 45 162 99 307 230 392 356 140 206 223 483 209 699 -7
120 -27 192 -82 302 -104 209 -286 341 -541 392 -162 33 -341 41 -890 41
l-523 0 0 -1720z m1105 1346 c200 -34 313 -93 400 -208 66 -88 90 -169 89
-303 -1 -95 -5 -123 -32 -205 -70 -211 -204 -373 -417 -503 l-60 -37 -313 0
-312 0 0 641 0 641 278 -5 c185 -3 307 -10 367 -21z"/>
<path d="M46120 17000 l0 -1720 930 0 930 0 0 195 0 195 -700 0 -700 0 0 595
0 595 615 0 615 0 0 175 0 175 -615 0 -615 0 0 575 0 575 685 0 685 0 0 180 0
180 -915 0 -915 0 0 -1720z"/>
<path d="M48320 18714 c0 -3 227 -418 505 -923 l505 -917 0 -797 0 -797 230 0
230 0 0 789 0 788 506 919 c279 505 509 925 511 932 4 9 -46 12 -228 12 l-234
0 -374 -680 c-206 -374 -377 -677 -380 -674 -3 3 -173 307 -376 677 l-371 672
-262 3 c-144 1 -262 0 -262 -4z"/>
<path d="M53210 17000 l0 -1720 503 0 c276 0 554 5 617 11 151 13 315 51 403
91 227 104 398 316 468 579 32 116 32 308 0 424 -32 121 -120 290 -190 367
-98 107 -229 197 -389 268 l-82 37 47 26 c294 160 473 418 513 741 23 180 -1
337 -75 491 -52 108 -120 187 -217 251 -186 124 -413 154 -1175 154 l-423 0 0
-1720z m1090 1341 c123 -27 207 -68 264 -132 146 -162 135 -503 -22 -731 -72
-104 -189 -196 -337 -264 l-74 -34 -230 0 -231 0 0 596 0 597 268 -6 c216 -4
285 -9 362 -26z m-150 -1535 c370 -57 588 -259 615 -568 19 -214 -107 -441
-296 -532 -131 -63 -171 -68 -501 -73 l-298 -5 0 603 0 602 193 -6 c105 -4
235 -13 287 -21z"/>
<path d="M56495 18708 c-23 -67 -1055 -3409 -1055 -3417 0 -8 68 -11 213 -11
l212 0 121 378 120 377 604 0 604 0 115 -377 115 -378 242 0 242 0 -23 78
c-14 42 -253 816 -532 1719 l-508 1643 -233 0 c-177 0 -234 -3 -237 -12z m260
-859 c25 -90 136 -453 247 -807 110 -353 199 -645 196 -647 -3 -3 -223 -4
-490 -3 l-486 3 207 685 c114 377 223 742 242 812 18 69 35 125 37 124 1 -2
23 -77 47 -167z"/>
<path d="M58020 18714 c0 -3 227 -419 505 -924 l505 -917 0 -796 0 -797 230 0
230 0 0 789 0 789 510 926 c281 509 510 928 510 931 0 3 -105 5 -233 5 l-232
0 -375 -681 c-347 -630 -376 -679 -389 -659 -7 11 -176 316 -376 678 l-361
657 -262 3 c-144 1 -262 -1 -262 -4z"/>
<path d="M38370 14379 c-474 -40 -828 -295 -1064 -766 -201 -402 -296 -888
-296 -1513 0 -1184 383 -1996 1045 -2214 143 -47 212 -58 406 -63 265 -8 430
22 627 113 410 188 710 653 842 1304 126 626 100 1441 -65 1985 -187 618 -525
998 -991 1116 -99 25 -321 52 -388 48 -12 -1 -64 -5 -116 -10z m209 -439 c163
-21 288 -87 418 -223 201 -210 319 -480 387 -887 39 -230 51 -401 51 -730 0
-423 -31 -708 -105 -988 -118 -441 -373 -760 -670 -837 -103 -27 -272 -17
-371 22 -153 60 -279 169 -393 341 -161 242 -248 531 -298 987 -8 76 -13 252
-13 475 0 363 7 476 46 720 65 412 203 720 415 925 115 112 241 176 382 194
37 5 67 9 67 10 0 0 38 -4 84 -9z"/>
<path d="M42215 14380 c-221 -18 -417 -74 -620 -175 -429 -215 -727 -582 -905
-1116 -202 -603 -201 -1373 1 -1981 112 -337 266 -595 484 -813 176 -177 368
-297 601 -378 228 -79 392 -102 687 -94 234 5 392 28 632 89 l130 33 3 1073 2
1072 -500 0 -500 0 0 -220 0 -220 215 0 215 0 -2 -692 -3 -693 -165 -3 c-241
-4 -397 23 -556 97 -116 54 -197 112 -289 205 -232 233 -417 669 -492 1156
-22 144 -25 561 -5 720 60 477 241 914 486 1177 200 215 442 325 711 325 259
0 507 -65 775 -203 53 -27 99 -49 103 -49 4 0 7 117 7 259 l0 260 -125 41
c-334 108 -627 151 -890 130z"/>
<path d="M66018 14379 c-597 -47 -1107 -399 -1388 -960 -193 -382 -284 -805
-284 -1319 0 -437 62 -790 198 -1128 250 -621 668 -992 1260 -1118 101 -22
156 -27 337 -31 286 -7 494 19 799 100 l85 22 3 1073 2 1072 -500 0 -500 0 0
-220 0 -220 215 0 215 0 0 -696 0 -696 -217 5 c-237 5 -304 16 -460 77 -157
60 -331 195 -438 340 -101 138 -213 368 -285 588 -173 526 -167 1187 14 1708
69 198 133 329 228 472 191 284 461 461 748 491 249 25 556 -41 839 -182 69
-34 128 -63 133 -65 4 -2 8 113 8 257 l0 260 -140 46 c-321 105 -607 145 -872
124z"/>
<path d="M30500 12105 l0 -2155 285 0 285 0 0 784 0 784 298 5 c373 7 556 32
789 111 505 171 872 590 972 1112 132 682 -205 1283 -802 1434 -256 65 -496
79 -1289 80 l-538 0 0 -2155z m1075 1705 c301 -16 474 -50 634 -126 219 -103
351 -316 377 -605 4 -43 1 -120 -5 -178 -44 -374 -233 -667 -526 -815 -179
-89 -337 -117 -707 -123 l-278 -5 0 931 0 931 158 0 c86 0 242 -5 347 -10z"/>
<path d="M33820 12105 l0 -2155 285 0 285 0 0 915 0 915 283 0 282 -1 564
-914 565 -915 333 0 c183 0 333 2 333 5 0 3 -274 450 -610 994 -335 544 -612
995 -615 1002 -3 9 22 29 68 55 397 228 656 579 748 1017 31 145 31 378 1 491
-28 102 -77 215 -127 291 -56 86 -197 223 -279 270 -276 159 -487 185 -1533
185 l-583 0 0 -2155z m1141 1705 c252 -15 452 -59 569 -127 74 -43 175 -148
213 -221 56 -107 71 -171 71 -302 0 -150 -27 -259 -98 -405 -97 -197 -211
-324 -410 -456 l-119 -79 -398 0 -399 0 0 800 0 800 208 0 c114 0 277 -5 363
-10z"/>
<path d="M44020 12105 l0 -2155 285 0 285 0 0 915 0 915 283 0 282 0 565 -915
565 -915 334 0 c266 0 332 3 328 13 -2 7 -278 456 -612 997 -334 542 -610 990
-612 997 -2 6 5 14 16 18 11 3 82 47 158 97 343 228 569 563 650 965 26 131
24 381 -5 486 -92 335 -341 580 -677 666 -225 57 -462 71 -1262 71 l-583 0 0
-2155z m1320 1691 c285 -39 449 -116 561 -266 196 -260 142 -676 -131 -1007
-65 -79 -190 -182 -308 -255 l-77 -48 -397 0 -398 0 0 802 0 801 323 -6 c185
-4 367 -13 427 -21z"/>
<path d="M47761 12117 c-360 -1178 -656 -2148 -659 -2154 -3 -10 55 -13 272
-13 l275 0 24 78 c13 42 80 254 147 470 l124 392 750 0 751 0 144 -470 144
-470 299 0 c280 0 299 1 294 18 -3 9 -300 971 -661 2137 -361 1166 -658 2128
-661 2138 -5 16 -28 17 -297 17 l-292 0 -654 -2143z m982 1025 c32 -119 172
-575 311 -1012 l254 -795 -303 -3 c-167 -1 -443 -1 -612 0 l-309 3 243 805
c134 443 267 898 296 1013 28 114 54 207 57 207 3 0 31 -98 63 -218z"/>
<path d="M50570 12105 l0 -2155 230 0 231 0 -3 1555 c-2 855 -2 1552 -1 1548
1 -5 25 -87 53 -183 27 -96 202 -599 387 -1117 l337 -943 287 0 287 0 10 28
c200 563 652 1862 701 2012 l66 205 -3 -1552 -3 -1553 260 0 261 0 0 2155 0
2155 -282 -2 -281 -3 -486 -1403 c-307 -886 -489 -1398 -494 -1390 -5 7 -228
639 -497 1403 l-488 1390 -286 3 -286 2 0 -2155z"/>
<path d="M53970 12105 l0 -2155 230 0 231 0 -3 1554 c-2 855 -2 1554 -2 1553
1 -1 22 -76 48 -167 25 -91 200 -596 389 -1122 l342 -958 286 0 c264 0 287 1
294 18 40 104 646 1842 699 2006 l71 218 -3 -1551 -3 -1551 260 0 261 0 0
2155 0 2155 -281 -2 -282 -3 -486 -1402 c-267 -771 -489 -1399 -492 -1395 -4
4 -227 635 -497 1402 l-489 1395 -287 3 -286 2 0 -2155z"/>
<path d="M57680 14040 l0 -220 470 0 470 0 0 -1715 0 -1715 -470 0 -470 0 0
-220 0 -220 1225 0 1225 0 0 220 0 220 -470 0 -470 0 0 1715 0 1715 470 0 470
0 0 220 0 220 -1225 0 -1225 0 0 -220z"/>
<path d="M60950 12105 l0 -2155 260 0 261 0 -3 1619 c-2 891 -2 1619 -1 1617
1 -1 49 -103 107 -226 57 -124 435 -850 839 -1615 l735 -1390 261 -3 261 -2 0
2155 0 2155 -261 0 -261 0 4 -1627 c2 -896 8 -1637 12 -1648 6 -13 6 -16 -1
-10 -5 6 -45 102 -88 214 -76 195 -115 270 -846 1635 l-766 1431 -257 3 -256
2 0 -2155z"/>
<path d="M69020 14020 l0 -240 645 0 645 0 0 -1915 0 -1915 285 0 285 0 0
1915 0 1915 645 0 645 0 0 240 0 240 -1575 0 -1575 0 0 -240z"/>
<path d="M72850 12105 l0 -2155 1165 0 1165 0 0 240 0 240 -880 0 -880 0 0
750 0 750 775 0 775 0 0 220 0 220 -775 0 -775 0 0 725 0 725 860 0 860 0 0
220 0 220 -1145 0 -1145 0 0 -2155z"/>
<path d="M76440 12123 c-359 -1176 -655 -2146 -658 -2155 -4 -17 14 -18 270
-18 l275 0 128 408 c71 224 137 435 148 470 l19 62 751 -2 751 -3 128 -415
c70 -228 135 -439 143 -467 l16 -53 300 0 c241 0 300 3 296 13 -2 7 -303 977
-668 2155 l-663 2142 -291 0 -291 0 -654 -2137z m980 1024 c29 -108 168 -560
309 -1005 l257 -807 -302 -3 c-167 -1 -442 -1 -612 0 l-310 3 247 820 c136
451 270 909 297 1017 26 109 51 192 55 185 3 -6 30 -101 59 -210z"/>
<path d="M79250 12105 l0 -2155 231 0 230 0 -3 1550 c-2 853 -2 1547 -1 1543
2 -5 27 -91 57 -193 30 -102 197 -583 371 -1070 175 -487 324 -904 332 -927
l15 -43 287 0 288 0 318 908 c176 499 351 1005 389 1124 l71 217 -3 -1554 -3
-1555 261 0 260 0 0 2155 0 2155 -282 -2 -283 -3 -485 -1397 c-267 -768 -487
-1399 -490 -1402 -3 -2 -218 604 -479 1347 -261 744 -483 1376 -494 1405 l-20
52 -283 0 -284 0 0 -2155z"/>
</g>
</svg>
